<?xml version="1.0" encoding="UTF-8" standalone="no"?>
<!-- Created with Inkscape (http://www.inkscape.org/) -->

<svg
   xmlns:dc="http://purl.org/dc/elements/1.1/"
   xmlns:cc="http://creativecommons.org/ns#"
   xmlns:rdf="http://www.w3.org/1999/02/22-rdf-syntax-ns#"
   xmlns:svg="http://www.w3.org/2000/svg"
   xmlns="http://www.w3.org/2000/svg"
   xmlns:sodipodi="http://sodipodi.sourceforge.net/DTD/sodipodi-0.dtd"
   xmlns:inkscape="http://www.inkscape.org/namespaces/inkscape"
   version="1.1"
   width="209.53"
   height="274.07001"
   id="svg2"
   xml:space="preserve"
   inkscape:version="0.47+devel r"
   sodipodi:docname="ArduinoWaker-RC-ink.svg"><sodipodi:namedview
     pagecolor="#ffffff"
     bordercolor="#666666"
     borderopacity="1"
     objecttolerance="10"
     gridtolerance="10"
     guidetolerance="10"
     inkscape:pageopacity="0"
     inkscape:pageshadow="2"
     inkscape:window-width="743"
     inkscape:window-height="480"
     id="namedview4282"
     showgrid="false"
     inkscape:zoom="1.0631158"
     inkscape:cx="40.12853"
     inkscape:cy="114.12202"
     inkscape:window-x="142"
     inkscape:window-y="27"
     inkscape:window-maximized="0"
     inkscape:current-layer="g10872" /><metadata
     id="metadata8"><rdf:RDF><cc:Work
         rdf:about=""><dc:format>image/svg+xml</dc:format><dc:type
           rdf:resource="http://purl.org/dc/dcmitype/StillImage" /></cc:Work></rdf:RDF></metadata><defs
     id="defs6"><marker
   inkscape:stockid="Arrow1Lend"
   orient="auto"
   refY="0"
   refX="0"
   id="Arrow1Lend"
   style="overflow:visible"><path
     id="path6264"
     d="M 0,0 5,-5 -12.5,0 5,5 0,0 z"
     style="fill-rule:evenodd;stroke:#000000;stroke-width:1pt;marker-start:none"
     transform="matrix(-0.8,0,0,-0.8,-10,0)"
     inkscape:connector-curvature="0" /></marker><marker
   inkscape:stockid="Arrow1Mend"
   orient="auto"
   refY="0"
   refX="0"
   id="Arrow1Mend"
   style="overflow:visible"><path
     id="path6270"
     d="M 0,0 5,-5 -12.5,0 5,5 0,0 z"
     style="fill-rule:evenodd;stroke:#000000;stroke-width:1pt;marker-start:none"
     transform="matrix(-0.4,0,0,-0.4,-4,0)"
     inkscape:connector-curvature="0" /></marker><marker
   inkscape:stockid="Arrow1Send"
   orient="auto"
   refY="0"
   refX="0"
   id="Arrow1Send"
   style="overflow:visible"><path
     id="path6276"
     d="M 0,0 5,-5 -12.5,0 5,5 0,0 z"
     style="fill-rule:evenodd;stroke:#000000;stroke-width:1pt;marker-start:none"
     transform="matrix(-0.2,0,0,-0.2,-1.2,0)"
     inkscape:connector-curvature="0" /></marker><marker
   inkscape:stockid="Arrow1Lstart"
   orient="auto"
   refY="0"
   refX="0"
   id="Arrow1Lstart"
   style="overflow:visible"><path
     id="path6261"
     d="M 0,0 5,-5 -12.5,0 5,5 0,0 z"
     style="fill-rule:evenodd;stroke:#000000;stroke-width:1pt;marker-start:none"
     transform="matrix(0.8,0,0,0.8,10,0)"
     inkscape:connector-curvature="0" /></marker><clipPath
   id="clipPath16"><path
     d="m 130.93945,-163.41309 c 0,0 23.9878,0 23.9878,0 0,0 0,29.26465 0,29.26465 0,0 -23.9878,0 -23.9878,0 0,0 0,-29.26465 0,-29.26465 0,0 0,0 0,0 z"
     inkscape:connector-curvature="0"
     id="path18" /></clipPath><clipPath
   id="clipPath34"><path
     d="m 129.93945,-90.41309 c 0,0 23.9878,0 23.9878,0 0,0 0,29.26465 0,29.26465 0,0 -23.9878,0 -23.9878,0 0,0 0,-29.26465 0,-29.26465 0,0 0,0 0,0 z"
     inkscape:connector-curvature="0"
     id="path36" /></clipPath><clipPath
   id="clipPath58"><path
     d="m 169.93945,-90.91309 c 0,0 33.9878,0 33.9878,0 0,0 0,29.26465 0,29.26465 0,0 -33.9878,0 -33.9878,0 0,0 0,-29.26465 0,-29.26465 0,0 0,0 0,0 z"
     inkscape:connector-curvature="0"
     id="path60" /></clipPath><clipPath
   id="clipPath156"><path
     d="m 717.01172,-131.11084 c 0,0 33.98828,0 33.98828,0 0,0 0,29.26514 0,29.26514 0,0 -33.98828,0 -33.98828,0 0,0 0,-29.26514 0,-29.26514 0,0 0,0 0,0 z"
     inkscape:connector-curvature="0"
     id="path158" /></clipPath><clipPath
   id="clipPath174"><path
     d="m 492.01172,-135.11084 c 0,0 33.98828,0 33.98828,0 0,0 0,29.26514 0,29.26514 0,0 -33.98828,0 -33.98828,0 0,0 0,-29.26514 0,-29.26514 0,0 0,0 0,0 z"
     inkscape:connector-curvature="0"
     id="path176" /></clipPath><clipPath
   id="clipPath242"><path
     d="m 6.31494,-130.93945 c 0,0 33.98828,0 33.98828,0 0,0 0,29.26465 0,29.26465 0,0 -33.98828,0 -33.98828,0 0,0 0,-29.26465 0,-29.26465 0,0 0,0 0,0 z"
     inkscape:connector-curvature="0"
     id="path244" /></clipPath><clipPath
   id="clipPath322"><path
     d="m 234.90234,-135.41309 c 0,0 33.98731,0 33.98731,0 0,0 0,29.26465 0,29.26465 0,0 -33.98731,0 -33.98731,0 0,0 0,-29.26465 0,-29.26465 0,0 0,0 0,0 z"
     inkscape:connector-curvature="0"
     id="path324" /></clipPath><clipPath
   id="clipPath346"><path
     d="m 421.88867,-144.56396 c 0,0 33.98828,0 33.98828,0 0,0 0,29.26464 0,29.26464 0,0 -33.98828,0 -33.98828,0 0,0 0,-29.26464 0,-29.26464 0,0 0,0 0,0 z"
     inkscape:connector-curvature="0"
     id="path348" /></clipPath><clipPath
   id="clipPath364"><path
     d="m 311.40186,-173.41309 c 0,0 23.98779,0 23.98779,0 0,0 0,29.26465 0,29.26465 0,0 -23.98779,0 -23.98779,0 0,0 0,-29.26465 0,-29.26465 0,0 0,0 0,0 z"
     inkscape:connector-curvature="0"
     id="path366" /></clipPath><clipPath
   id="clipPath378"><path
     d="m 390.40186,-91.41309 c 0,0 23.98779,0 23.98779,0 0,0 0,29.26465 0,29.26465 0,0 -23.98779,0 -23.98779,0 0,0 0,-29.26465 0,-29.26465 0,0 0,0 0,0 z"
     inkscape:connector-curvature="0"
     id="path380" /></clipPath><clipPath
   id="clipPath392"><path
     d="m 583.55469,-155.21924 c 0,0 23.98779,0 23.98779,0 0,0 0,29.26465 0,29.26465 0,0 -23.98779,0 -23.98779,0 0,0 0,-29.26465 0,-29.26465 0,0 0,0 0,0 z"
     inkscape:connector-curvature="0"
     id="path394" /></clipPath><clipPath
   id="clipPath406"><path
     d="m 582.55469,-82.21924 c 0,0 23.98779,0 23.98779,0 0,0 0,29.26465 0,29.26465 0,0 -23.98779,0 -23.98779,0 0,0 0,-29.26465 0,-29.26465 0,0 0,0 0,0 z"
     inkscape:connector-curvature="0"
     id="path408" /></clipPath>



<marker
   inkscape:stockid="Arrow1Lend"
   orient="auto"
   refY="0"
   refX="0"
   id="Arrow1Lend-8"
   style="overflow:visible"><path
     inkscape:connector-curvature="0"
     id="path6264-7"
     d="M 0,0 5,-5 -12.5,0 5,5 0,0 z"
     style="fill-rule:evenodd;stroke:#000000;stroke-width:1pt;marker-start:none"
     transform="matrix(-0.8,0,0,-0.8,-10,0)" /></marker><marker
   inkscape:stockid="Arrow1Lend"
   orient="auto"
   refY="0"
   refX="0"
   id="Arrow1Lend-6"
   style="overflow:visible"><path
     inkscape:connector-curvature="0"
     id="path6264-4"
     d="M 0,0 5,-5 -12.5,0 5,5 0,0 z"
     style="fill-rule:evenodd;stroke:#000000;stroke-width:1pt;marker-start:none"
     transform="matrix(-0.8,0,0,-0.8,-10,0)" /></marker>
</defs><text
     id="text19149-3-5-9-0"
     y="17.707047"
     x="12.477133"
     style="font-size:11.24937725px;font-style:normal;font-weight:normal;text-align:end;text-anchor:end;fill:#000000;fill-opacity:1;stroke:none;font-family:Bitstream Vera Sans"
     xml:space="preserve"><tspan
       y="17.707047"
       x="12.477133"
       sodipodi:role="line"
       id="tspan19153-1-0-7-4"
       style="font-weight:bold;text-align:start;text-anchor:start;-inkscape-font-specification:Bitstream Vera Sans Bold">ARDUINO WAKER</tspan></text>
<g
     id="g10964"
     transform="translate(6,10.00081)"><g
       transform="translate(-8,8)"
       id="g10872"><path
         d="m 33.634677,220.72082 c 0,0 0,18.40002 0,18.40002"
         inkscape:connector-curvature="0"
         id="path194"
         style="fill:none;stroke:#231f20;stroke-width:0.9375;stroke-linecap:round;stroke-linejoin:round;stroke-miterlimit:4;stroke-opacity:1;stroke-dasharray:none"
         sodipodi:nodetypes="cc" /><path
         d="m 33.78412,239.12084 c 0,0 98.09998,0 98.09998,0"
         inkscape:connector-curvature="0"
         id="path198"
         style="color:#000000;fill:none;stroke:#231f20;stroke-width:0.93800002;stroke-linecap:round;stroke-linejoin:round;stroke-miterlimit:4;stroke-opacity:1;stroke-dasharray:none;stroke-dashoffset:0;marker:none;marker-end:url(#Arrow1Lend);visibility:visible;display:inline;overflow:visible;enable-background:accumulate" /><path
         d="m 33.8841,134.72082 c 0,0 0.15015,0 0.15015,0"
         inkscape:connector-curvature="0"
         id="path200"
         style="fill:none;stroke:#231f20;stroke-width:0.9375;stroke-linecap:round;stroke-linejoin:round;stroke-miterlimit:4;stroke-opacity:1;stroke-dasharray:none" /><path
         d="m 33.8841,22.220819 c 0,0 0,22.5 0,22.5"
         inkscape:connector-curvature="0"
         id="path202"
         style="fill:none;stroke:#231f20;stroke-width:0.9375;stroke-linecap:round;stroke-linejoin:round;stroke-miterlimit:4;stroke-opacity:1;stroke-dasharray:none" /><path
         d="m 33.78412,22.220819 c 0,0 98.09998,0 98.09998,0"
         inkscape:connector-curvature="0"
         id="path206"
         style="fill:none;stroke:#231f20;stroke-width:0.93800002;stroke-linecap:round;stroke-linejoin:round;stroke-miterlimit:4;stroke-opacity:1;stroke-dasharray:none;marker-start:none;marker-end:url(#Arrow1Lend)" /><path
         d="m 33.644818,223.82055 c 0,0 0,-30 0,-30"
         inkscape:connector-curvature="0"
         id="path208"
         style="fill:none;stroke:#231f20;stroke-width:0.9375;stroke-linecap:round;stroke-linejoin:round;stroke-miterlimit:4;stroke-opacity:1;stroke-dasharray:none"
         sodipodi:nodetypes="cc" /><path
         d="m 33.644818,173.07228 c 0,0 0,-129.251736 0,-129.251736"
         inkscape:connector-curvature="0"
         id="path216"
         style="fill:none;stroke:#231f20;stroke-width:0.9375;stroke-linecap:round;stroke-linejoin:round;stroke-miterlimit:4;stroke-opacity:1;stroke-dasharray:none"
         sodipodi:nodetypes="cc" /><g
         id="g8029"
         transform="translate(0,-12)"><path
           style="fill:none;stroke:#ffffff;stroke-width:2.8125;stroke-linecap:round;stroke-linejoin:round;stroke-miterlimit:4;stroke-opacity:1;stroke-dasharray:none"
           id="path218"
           inkscape:connector-curvature="0"
           d="m 34.33455,108.92064 c 0,0 0,-39.599608 0,-39.599608" /><path
           style="fill:none;stroke:#231f20;stroke-width:0.9375;stroke-linecap:round;stroke-linejoin:round;stroke-miterlimit:4;stroke-opacity:1;stroke-dasharray:none"
           id="path220"
           inkscape:connector-curvature="0"
           d="m 22.78425,107.12072 c 0,0 22.34985,-5.1001 22.34985,-5.1001" /><path
           style="fill:none;stroke:#231f20;stroke-width:0.9375;stroke-linecap:round;stroke-linejoin:round;stroke-miterlimit:4;stroke-opacity:1;stroke-dasharray:none"
           id="path222"
           inkscape:connector-curvature="0"
           d="m 43.78461,102.02062 c 0,0 -21.15051,-5.399776 -21.15051,-5.399776" /><path
           style="fill:none;stroke:#231f20;stroke-width:0.9375;stroke-linecap:round;stroke-linejoin:round;stroke-miterlimit:4;stroke-opacity:1;stroke-dasharray:none"
           id="path224"
           inkscape:connector-curvature="0"
           d="m 22.78425,96.620844 c 0,0 22.34985,-5.1001 22.34985,-5.1001" /><path
           style="fill:none;stroke:#231f20;stroke-width:0.9375;stroke-linecap:round;stroke-linejoin:round;stroke-miterlimit:4;stroke-opacity:1;stroke-dasharray:none"
           id="path226"
           inkscape:connector-curvature="0"
           d="m 43.78461,91.520744 c 0,0 -21.15051,-5.399775 -21.15051,-5.399775" /><path
           style="fill:none;stroke:#231f20;stroke-width:0.9375;stroke-linecap:round;stroke-linejoin:round;stroke-miterlimit:4;stroke-opacity:1;stroke-dasharray:none"
           id="path228"
           inkscape:connector-curvature="0"
           d="m 22.78425,85.970819 c 0,0 22.34985,-5.1001 22.34985,-5.1001" /><path
           style="fill:none;stroke:#231f20;stroke-width:0.9375;stroke-linecap:round;stroke-linejoin:round;stroke-miterlimit:4;stroke-opacity:1;stroke-dasharray:none"
           id="path230"
           inkscape:connector-curvature="0"
           d="m 43.78461,80.870719 c 0,0 -21.15051,-5.399775 -21.15051,-5.399775" /><path
           style="fill:none;stroke:#231f20;stroke-width:0.9375;stroke-linecap:round;stroke-linejoin:round;stroke-miterlimit:4;stroke-opacity:1;stroke-dasharray:none"
           id="path232"
           inkscape:connector-curvature="0"
           d="m 22.78425,75.470944 c 0,0 22.34985,-5.1001 22.34985,-5.1001" /><path
           style="fill:none;stroke:#231f20;stroke-width:0.9375;stroke-linecap:round;stroke-linejoin:round;stroke-miterlimit:4;stroke-opacity:1;stroke-dasharray:none"
           id="path234"
           inkscape:connector-curvature="0"
           d="m 44.98457,70.370844 c 0,0 -11.10047,-2.7002 -11.10047,-2.7002" /><path
           style="fill:none;stroke:#231f20;stroke-width:0.9375;stroke-linecap:round;stroke-linejoin:round;stroke-miterlimit:4;stroke-opacity:1;stroke-dasharray:none"
           id="path236"
           inkscape:connector-curvature="0"
           d="m 33.73457,109.82092 c 0,0 -11.10047,-2.7002 -11.10047,-2.7002" /></g><g
         id="g5439"
         transform="matrix(0.82083215,0,0,0.8224177,20.044797,170.44211)"
         style="color:#000000;fill:none;stroke:#231f20;stroke-width:1.1410321;stroke-linecap:round;stroke-linejoin:round;stroke-miterlimit:4;stroke-opacity:1;stroke-dasharray:none;stroke-dashoffset:0;marker:none;visibility:visible;display:inline;overflow:visible;enable-background:accumulate"><line
           id="line5421"
           y2="18.476999"
           x2="16.615999"
           y1="0.852"
           x1="16.615999"
           style="color:#000000;fill:none;stroke:#231f20;stroke-width:1.1410321;stroke-linecap:round;stroke-linejoin:round;stroke-miterlimit:4;stroke-opacity:1;stroke-dasharray:none;stroke-dashoffset:0;marker:none;visibility:visible;display:inline;overflow:visible;enable-background:accumulate" /><line
           id="line5423"
           y2="18.851999"
           x2="31.365999"
           y1="18.851999"
           x1="1.3660001"
           style="color:#000000;fill:none;stroke:#231f20;stroke-width:1.1410321;stroke-linecap:round;stroke-linejoin:round;stroke-miterlimit:4;stroke-opacity:1;stroke-dasharray:none;stroke-dashoffset:0;marker:none;visibility:visible;display:inline;overflow:visible;enable-background:accumulate" /><line
           id="line5425"
           y2="43.227001"
           x2="16.615999"
           y1="24.615999"
           x1="16.615999"
           style="color:#000000;fill:none;stroke:#231f20;stroke-width:1.1410321;stroke-linecap:round;stroke-linejoin:round;stroke-miterlimit:4;stroke-opacity:1;stroke-dasharray:none;stroke-dashoffset:0;marker:none;visibility:visible;display:inline;overflow:visible;enable-background:accumulate" /><line
           id="line5427"
           y2="11.928"
           x2="31.313"
           y1="11.928"
           x1="24.688"
           style="color:#000000;fill:none;stroke:#231f20;stroke-width:1.1410321;stroke-linecap:round;stroke-linejoin:round;stroke-miterlimit:4;stroke-opacity:1;stroke-dasharray:none;stroke-dashoffset:0;marker:none;visibility:visible;display:inline;overflow:visible;enable-background:accumulate" /><line
           id="line5429"
           y2="15.241"
           x2="28"
           y1="8.6160002"
           x1="28"
           style="color:#000000;fill:none;stroke:#231f20;stroke-width:1.1410321;stroke-linecap:round;stroke-linejoin:round;stroke-miterlimit:4;stroke-opacity:1;stroke-dasharray:none;stroke-dashoffset:0;marker:none;visibility:visible;display:inline;overflow:visible;enable-background:accumulate" /><path
           id="path5431"
           d="m 1.732,29.247 c 4.079,-3.221 9.23,-5.143 14.83,-5.143 5.495,0 10.559,1.851 14.6,4.963"
           inkscape:connector-curvature="0"
           style="color:#000000;fill:none;stroke:#231f20;stroke-width:1.1410321;stroke-linecap:round;stroke-linejoin:round;stroke-miterlimit:4;stroke-opacity:1;stroke-dasharray:none;stroke-dashoffset:0;marker:none;visibility:visible;display:inline;overflow:visible;enable-background:accumulate" /></g><path
         style="color:#000000;fill:none;stroke:#231f20;stroke-width:0.93800002;stroke-linecap:round;stroke-linejoin:round;stroke-miterlimit:4;stroke-opacity:1;stroke-dasharray:none;stroke-dashoffset:0;marker:none;marker-end:url(#Arrow1Lend);visibility:visible;display:inline;overflow:visible;enable-background:accumulate"
         id="path5488"
         inkscape:connector-curvature="0"
         d="m 33.78412,140.22082 c 0,0 98.09998,0 98.09998,0" /><g
         id="g11035"
         transform="translate(0,0.63002501)"><g
           transform="matrix(1.25,0,0,1.25,-116.78578,255.03222)"
           id="g12"><g
             clip-path="url(#clipPath16)"
             id="g14"><g
               transform="scale(1,-1)"
               id="g20"><text
   transform="matrix(1,0,0,-0.99727724,134.71729,142.76367)"
   id="text22"><tspan
     x="0"
     y="0"
     id="tspan24"
     style="font-size:20.71425056px;font-style:italic;font-variant:normal;writing-mode:lr-tb;fill:#231f20;fill-opacity:1;fill-rule:nonzero;stroke:none;font-family:Times New Roman;-inkscape-font-specification:TimesNewRomanPS-ItalicMT">R</tspan></text>

</g></g></g><text
           style="font-size:14.97956467px"
           y="92.703941"
           x="50.428555"
           transform="scale(1.0013642,0.99863766)"
           id="text11018"><tspan
             x="50.428555"
             y="92.703941"
             id="tspan11020"
             style="font-size:18px;font-style:italic;font-variant:normal;writing-mode:lr-tb;fill:#231f20;fill-opacity:1;fill-rule:nonzero;stroke:none;font-family:Times New Roman;-inkscape-font-specification:TimesNewRomanPS-ItalicMT">9.5 KΩ</tspan></text>
</g><g
         id="g11044"
         transform="translate(0,-12.830566)"><g
           transform="matrix(1.25,0,0,1.25,-117.87473,287.03222)"
           id="g30"><g
             id="g32"
             clip-path="url(#clipPath34)"><g
               id="g38"
               transform="scale(1,-1)"><text
   id="text40"
   transform="matrix(1,0,0,-0.99727724,133.71729,69.76367)"><tspan
     style="font-size:20.71425056px;font-style:italic;font-variant:normal;writing-mode:lr-tb;fill:#231f20;fill-opacity:1;fill-rule:nonzero;stroke:none;font-family:Times New Roman;-inkscape-font-specification:TimesNewRomanPS-ItalicMT"
     id="tspan42"
     y="0"
     x="0">C</tspan></text>

</g></g></g><text
           id="text11031"
           transform="scale(1.0013642,0.99863766)"
           x="50.384609"
           y="216.87311"
           style="font-size:14.97956467px"><tspan
             style="font-size:18px;font-style:italic;font-variant:normal;writing-mode:lr-tb;fill:#231f20;fill-opacity:1;fill-rule:nonzero;stroke:none;font-family:Times New Roman;-inkscape-font-specification:TimesNewRomanPS-ItalicMT"
             id="tspan11033"
             y="216.87311"
             x="50.384609">47 μF</tspan></text>
</g></g><text
       id="text10910"
       y="24.445686"
       x="132.73848"
       style="font-size:26px;font-style:normal;font-variant:normal;font-weight:normal;font-stretch:normal;fill:#000000;fill-opacity:1;stroke:none;font-family:FreeSans;-inkscape-font-specification:FreeSans"
       xml:space="preserve"><tspan
         style="font-size:10px;font-style:normal;font-variant:normal;font-weight:normal;font-stretch:normal;font-family:Monospace;-inkscape-font-specification:Monospace"
         y="24.445686"
         x="132.73848"
         id="tspan10912"
         sodipodi:role="line">Arduino</tspan><tspan
         style="font-size:14px;font-style:normal;font-variant:normal;font-weight:normal;font-stretch:normal;font-family:Monospace;-inkscape-font-specification:Monospace"
         id="tspan10914"
         y="40.932682"
         x="132.73848"
         sodipodi:role="line">VCC</tspan></text>
<text
       id="text10910-0"
       y="143.82774"
       x="132.73848"
       style="font-size:26px;font-style:normal;font-variant:normal;font-weight:normal;font-stretch:normal;fill:#000000;fill-opacity:1;stroke:none;font-family:FreeSans;-inkscape-font-specification:FreeSans"
       xml:space="preserve"><tspan
         style="font-size:10px;font-style:normal;font-variant:normal;font-weight:normal;font-stretch:normal;font-family:Monospace;-inkscape-font-specification:Monospace"
         y="143.82774"
         x="132.73848"
         id="tspan10912-4"
         sodipodi:role="line">Arduino</tspan><tspan
         style="font-size:14px;font-style:normal;font-variant:normal;font-weight:normal;font-stretch:normal;font-family:Monospace;-inkscape-font-specification:Monospace"
         id="tspan10914-4"
         y="160.31474"
         x="132.73848"
         sodipodi:role="line">RESET</tspan></text>
<text
       id="text10910-0-6"
       y="239.79068"
       x="132.73848"
       style="font-size:26px;font-style:normal;font-variant:normal;font-weight:normal;font-stretch:normal;fill:#000000;fill-opacity:1;stroke:none;font-family:FreeSans;-inkscape-font-specification:FreeSans"
       xml:space="preserve"><tspan
         style="font-size:10px;font-style:normal;font-variant:normal;font-weight:normal;font-stretch:normal;font-family:Monospace;-inkscape-font-specification:Monospace"
         y="239.79068"
         x="132.73848"
         id="tspan10912-4-8"
         sodipodi:role="line">Arduino</tspan><tspan
         style="font-size:14px;font-style:normal;font-variant:normal;font-weight:normal;font-stretch:normal;font-family:Monospace;-inkscape-font-specification:Monospace"
         id="tspan10914-4-1"
         y="256.27768"
         x="132.73848"
         sodipodi:role="line">GND</tspan></text>
</g></svg>